ffmpeg version 3.4.8-0ubuntu0.2 Copyright (c) 2000-2020 the FFmpeg developers
  built with gcc 7 (Ubuntu 7.5.0-3ubuntu1~18.04)
  configuration: --prefix=/usr --extra-version=0ubuntu0.2 --toolchain=hardened --libdir=/usr/lib/x86_64-linux-gnu --incdir=/usr/include/x86_64-linux-gnu --enable-gpl --disable-stripping --enable-avresample --enable-avisynth --enable-gnutls --enable-ladspa --enable-libass --enable-libbluray --enable-libbs2b --enable-libcaca --enable-libcdio --enable-libflite --enable-libfontconfig --enable-libfreetype --enable-libfribidi --enable-libgme --enable-libgsm --enable-libmp3lame --enable-libmysofa --enable-libopenjpeg --enable-libopenmpt --enable-libopus --enable-libpulse --enable-librubberband --enable-librsvg --enable-libshine --enable-libsnappy --enable-libsoxr --enable-libspeex --enable-libssh --enable-libtheora --enable-libtwolame --enable-libvorbis --enable-libvpx --enable-libwavpack --enable-libwebp --enable-libx265 --enable-libxml2 --enable-libxvid --enable-libzmq --enable-libzvbi --enable-omx --enable-openal --enable-opengl --enable-sdl2 --enable-libdc1394 --enable-libdrm --enable-libiec61883 --enable-chromaprint --enable-frei0r --enable-libopencv --enable-libx264 --enable-shared
  libavutil      55. 78.100 / 55. 78.100
  libavcodec     57.107.100 / 57.107.100
  libavformat    57. 83.100 / 57. 83.100
  libavdevice    57. 10.100 / 57. 10.100
  libavfilter     6.107.100 /  6.107.100
  libavresample   3.  7.  0 /  3.  7.  0
  libswscale      4.  8.100 /  4.  8.100
  libswresample   2.  9.100 /  2.  9.100
  libpostproc    54.  7.100 / 54.  7.100
[rawvideo @ 0x5642ff20ca20] Estimating duration from bitrate, this may be inaccurate
Input #0, rawvideo, from '../../SVC-Encoder-20220109T061506Z-001/SVC-Encoder/Dataset/RollerCoaster/ERP_8x8/tile_yuv/Tile_57_480x240.yuv':
  Duration: 00:00:10.00, start: 0.000000, bitrate: 41472 kb/s
    Stream #0:0: Video: rawvideo (I420 / 0x30323449), yuv420p, 480x240, 41472 kb/s, 30 tbr, 30 tbn, 30 tbc
Stream mapping:
  Stream #0:0 -> #0:0 (rawvideo (native) -> h264 (libx264))
Press [q] to stop, [?] for help
[libx264 @ 0x5642ff219c60] using cpu capabilities: MMX2 SSE2Fast LZCNT SSSE3 SSE4.2 AVX
[libx264 @ 0x5642ff219c60] profile High, level 2.1
Output #0, rawvideo, to 'RollerCoaster_Tile_57_480x240_x264_QP_36.h264':
  Metadata:
    encoder         : Lavf57.83.100
    Stream #0:0: Video: h264 (libx264), yuv420p, 480x240, q=-1--1, 30 fps, 30 tbn, 30 tbc
    Metadata:
      encoder         : Lavc57.107.100 libx264
    Side data:
      cpb: bitrate max/min/avg: 0/0/0 buffer size: 0 vbv_delay: -1
frame=  300 fps=0.0 q=42.0 LPSNR=Y:inf U:inf V:inf *:inf size=      33kB time=00:00:09.93 bitrate=  27.0kbits/s speed=21.4x    
video:33kB audio:0kB subtitle:0kB other streams:0kB global headers:0kB muxing overhead: 0.000000%
[libx264 @ 0x5642ff219c60] frame I:2     Avg QP:33.69  size:  2754  PSNR Mean Y:40.31 U:44.84 V:41.23 Avg:40.95 Global:40.92
[libx264 @ 0x5642ff219c60] frame P:76    Avg QP:34.29  size:   181  PSNR Mean Y:39.80 U:44.77 V:41.61 Avg:40.61 Global:40.60
[libx264 @ 0x5642ff219c60] frame B:222   Avg QP:41.42  size:    64  PSNR Mean Y:39.52 U:44.77 V:41.57 Avg:40.37 Global:40.36
[libx264 @ 0x5642ff219c60] consecutive B-frames:  1.0%  0.7%  1.0% 97.3%
[libx264 @ 0x5642ff219c60] mb I  I16..4: 39.4% 49.9% 10.7%
[libx264 @ 0x5642ff219c60] mb P  I16..4:  0.6%  0.3%  0.0%  P16..4: 21.8%  0.6%  0.0%  0.0%  0.0%    skip:76.7%
[libx264 @ 0x5642ff219c60] mb B  I16..4:  0.0%  0.0%  0.0%  B16..8: 10.3%  0.1%  0.0%  direct: 0.0%  skip:89.6%  L0:43.5% L1:56.4% BI: 0.0%
[libx264 @ 0x5642ff219c60] 8x8 transform intra:46.0% inter:94.2%
[libx264 @ 0x5642ff219c60] coded y,uvDC,uvAC intra: 19.2% 34.2% 16.3% inter: 0.2% 0.4% 0.0%
[libx264 @ 0x5642ff219c60] i16 v,h,dc,p: 38% 51%  8%  3%
[libx264 @ 0x5642ff219c60] i8 v,h,dc,ddl,ddr,vr,hd,vl,hu: 22% 25% 38%  2%  2%  2%  2%  1%  5%
[libx264 @ 0x5642ff219c60] i4 v,h,dc,ddl,ddr,vr,hd,vl,hu: 14% 52% 21%  2%  1%  1%  3%  1%  7%
[libx264 @ 0x5642ff219c60] i8c dc,h,v,p: 71% 22%  4%  3%
[libx264 @ 0x5642ff219c60] Weighted P-Frames: Y:2.6% UV:0.0%
[libx264 @ 0x5642ff219c60] ref P L0: 57.6% 14.8% 21.5%  6.0%  0.2%
[libx264 @ 0x5642ff219c60] ref B L0: 63.1% 27.2%  9.7%
[libx264 @ 0x5642ff219c60] ref B L1: 80.0% 20.0%
[libx264 @ 0x5642ff219c60] PSNR Mean Y:39.594 U:44.770 V:41.582 Avg:40.436 Global:40.422 kb/s:26.79
